<?xml version="1.0" encoding="utf-8"?>
<!-- Generator: Adobe Illustrator 24.3.0, SVG Export Plug-In . SVG Version: 6.00 Build 0)  -->
<svg version="1.1" id="Calque_1" xmlns="http://www.w3.org/2000/svg" xmlns:xlink="http://www.w3.org/1999/xlink" x="0px" y="0px"
	 viewBox="0 0 178.9 103.7" style="enable-background:new 0 0 178.9 103.7;" xml:space="preserve">
<style type="text/css">
	.st0{fill-rule:evenodd;clip-rule:evenodd;fill:#010202;}
</style>
<path class="st0" d="M160.2,51.6c0,2.1,0.7,3.8,2.1,5.2c1.3,1.4,3,2,4.9,2c0.9,0,1.9-0.2,2.7-0.5c0.9-0.3,1.6-0.7,2.3-1.3
	c0.6-0.5,1.3-1.4,2-2.6l2,1c-0.7,1.3-1.4,2.3-2.3,3.1c-0.9,0.8-1.8,1.4-2.9,1.8c-1.1,0.4-2.3,0.6-3.6,0.6c-3,0-5.4-1-7-2.9
	c-1.7-1.9-2.5-4.1-2.5-6.6c0-2.3,0.7-4.4,2.1-6.2c1.8-2.3,4.3-3.4,7.3-3.4c3.1,0,5.7,1.2,7.5,3.5c1.3,1.7,2,3.7,2,6.2H160.2z
	 M172.8,46.6c-0.6-0.7-1.4-1.3-2.4-1.8c-1-0.5-2-0.7-3.1-0.7c-1.8,0-3.4,0.6-4.7,1.7c-1,0.8-1.7,2.1-2.2,3.8h13.7
	C173.9,48.3,173.4,47.3,172.8,46.6z M158.9,97.5h-6c0,0.8,0.3,1.4,0.7,1.9c0.5,0.5,1.1,0.7,1.8,0.7c0.3,0,0.7-0.1,1-0.2
	c0.3-0.1,0.6-0.3,0.8-0.5c0.2-0.2,0.5-0.5,0.7-0.9l0.7,0.4c-0.2,0.5-0.5,0.8-0.8,1.1c-0.3,0.3-0.7,0.5-1.1,0.6
	c-0.4,0.1-0.8,0.2-1.3,0.2c-1.1,0-1.9-0.4-2.6-1.1c-0.6-0.7-0.9-1.5-0.9-2.4c0-0.8,0.3-1.6,0.8-2.2c0.7-0.8,1.5-1.3,2.7-1.3
	c1.1,0,2.1,0.4,2.7,1.3C158.6,95.8,158.9,96.6,158.9,97.5z M157.5,95.7c-0.2-0.3-0.5-0.5-0.9-0.7c-0.4-0.2-0.7-0.3-1.1-0.3
	c-0.7,0-1.2,0.2-1.7,0.6c-0.3,0.3-0.6,0.8-0.8,1.4h5C157.8,96.3,157.7,95.9,157.5,95.7z M149.2,57.4c-1,1.2-2.1,2.1-3.3,2.7
	c-1.2,0.6-2.6,0.9-4.1,0.9c-2.6,0-4.8-0.9-6.7-2.8c-1.8-1.9-2.8-4.1-2.8-6.8c0-2.6,0.9-4.9,2.8-6.7c1.9-1.9,4.1-2.8,6.7-2.8
	c1.5,0,2.9,0.3,4.1,1c1.2,0.6,2.3,1.6,3.2,2.9V35.3h2.3v25.2h-2.3V57.4z M147.3,46.2c-1.4-1.4-3.1-2.1-5.2-2.1c-1.3,0-2.5,0.3-3.7,1
	c-1.1,0.6-2,1.5-2.7,2.7c-0.7,1.2-1,2.4-1,3.7c0,1.3,0.3,2.5,1,3.7c0.7,1.2,1.6,2.1,2.7,2.7c1.1,0.7,2.3,1,3.6,1
	c1.3,0,2.5-0.3,3.7-1c1.2-0.6,2.1-1.5,2.7-2.6c0.6-1.1,0.9-2.3,0.9-3.7C149.4,49.4,148.7,47.6,147.3,46.2z M123.8,57.4
	c-1,1.2-2.1,2.1-3.3,2.7c-1.2,0.6-2.6,0.9-4.1,0.9c-2.6,0-4.8-0.9-6.7-2.8c-1.8-1.9-2.8-4.1-2.8-6.8c0-2.6,0.9-4.9,2.8-6.7
	c1.9-1.9,4.1-2.8,6.7-2.8c1.5,0,2.9,0.3,4.1,1c1.2,0.6,2.3,1.6,3.2,2.9v-3.3h2.3v18.2h-2.3V57.4z M121.8,46.2
	c-1.4-1.4-3.1-2.1-5.2-2.1c-1.3,0-2.5,0.3-3.7,1c-1.1,0.6-2,1.5-2.7,2.7c-0.7,1.2-1,2.4-1,3.7c0,1.3,0.3,2.5,1,3.7
	c0.7,1.2,1.6,2.1,2.7,2.7c1.1,0.7,2.3,1,3.6,1c1.3,0,2.5-0.3,3.7-1c1.2-0.6,2.1-1.5,2.7-2.6c0.6-1.1,0.9-2.3,0.9-3.7
	C123.9,49.4,123.2,47.6,121.8,46.2z M98.7,35.3h2.4v25.2h-2.4V35.3z M95.2,21.6c-0.4,0.3-1,0.3-1.4-0.1l-1.6-1.4
	c-0.4-0.3-0.4-0.9,0-1.2l1.6-1.4c0.4-0.3,1-0.3,1.4,0l0.9,0.7c0.4,0.3,0.6,0.7,0.6,1.2c0,0.6-0.3,1.1-0.8,1.6
	C95.9,21.1,95.6,21.3,95.2,21.6z M90.3,17.4c-0.4,0.3-1,0.3-1.4,0L87.3,16c-0.4-0.3-0.4-0.9,0-1.2l6.6-5.6c0.4-0.3,1-0.3,1.4,0
	l0.9,0.7c0.4,0.3,0.6,0.7,0.6,1.2c0,0.6-0.3,1.1-0.8,1.6L90.3,17.4z M95.3,4.9c-0.3,0.3-0.9,0.2-1.3-0.1l-1.7-1.5
	c-0.4-0.3-0.4-0.9,0-1.2l1.5-1.3c0.4-0.3,1-0.3,1.4,0l1.1,0.9c0.4,0.3,0.6,0.7,0.6,1.2c0,0.6-0.3,1.1-0.8,1.6
	C95.9,4.3,95.6,4.6,95.3,4.9z M92,7.6L90.3,9c-0.4,0.3-1,0.3-1.4,0l-5.5-4.7c-0.5-0.5-0.8-1-0.8-1.6c0-0.4,0.2-0.8,0.6-1.2l1.1-0.9
	c0.4-0.3,1-0.3,1.4,0L92,6.4C92.4,6.7,92.4,7.3,92,7.6z M89.7,45.7v-3.3H92v18.2h-2.3v-3.1c-1,1.2-2.1,2.1-3.3,2.7
	c-1.2,0.6-2.6,0.9-4.1,0.9c-2.6,0-4.8-0.9-6.7-2.8c-1.8-1.9-2.8-4.1-2.8-6.8c0-2.6,0.9-4.9,2.8-6.7c1.9-1.9,4.1-2.8,6.7-2.8
	c1.5,0,2.9,0.3,4.1,1C87.7,43.4,88.8,44.4,89.7,45.7z M82.6,44.1c-1.3,0-2.5,0.3-3.7,1c-1.1,0.6-2,1.5-2.7,2.7c-0.7,1.2-1,2.4-1,3.7
	c0,1.3,0.3,2.5,1,3.7c0.7,1.2,1.6,2.1,2.7,2.7c1.1,0.7,2.3,1,3.6,1c1.3,0,2.5-0.3,3.7-1c1.2-0.6,2.1-1.5,2.7-2.6
	c0.6-1.1,0.9-2.3,0.9-3.7c0-2.1-0.7-3.9-2.1-5.3C86.3,44.8,84.6,44.1,82.6,44.1z M63,66.3c-1.5,0.9-3.4,1.3-5.5,1.3
	c-1.6,0-3-0.2-4.3-0.7c-1.3-0.4-2.3-1-3.1-1.8c-0.8-0.7-1.5-1.8-2.2-3.3h2.6c0.7,1.2,1.6,2.1,2.7,2.7c1.1,0.6,2.5,0.9,4.1,0.9
	c1.6,0,3-0.3,4.1-0.9c1.1-0.6,1.9-1.3,2.4-2.2c0.5-0.9,0.7-2.3,0.7-4.4V57c-0.9,1.1-2,2-3.3,2.6c-1.3,0.6-2.7,0.9-4.1,0.9
	c-1.7,0-3.3-0.4-4.8-1.2c-1.5-0.8-2.6-1.9-3.5-3.3c-0.8-1.4-1.2-2.9-1.2-4.6c0-1.7,0.4-3.2,1.3-4.7c0.9-1.5,2-2.6,3.5-3.4
	c1.5-0.8,3.1-1.3,4.7-1.3c1.4,0,2.7,0.3,3.9,0.8c1.2,0.6,2.3,1.5,3.5,2.8v-3.2h2.4v14.5c0,2.6-0.2,4.4-0.7,5.6
	C65.6,64.1,64.5,65.4,63,66.3z M63.7,47.6c-0.6-1.1-1.5-1.9-2.6-2.5c-1.1-0.6-2.3-0.9-3.6-0.9c-1.3,0-2.6,0.3-3.7,1
	c-1.2,0.6-2.1,1.5-2.7,2.7c-0.7,1.1-1,2.4-1,3.7c0,2,0.7,3.6,2,4.9c1.4,1.3,3.1,2,5.3,2c2.2,0,3.9-0.6,5.3-1.9c1.3-1.3,2-3,2-5.1
	C64.6,49.9,64.3,48.7,63.7,47.6z M27.9,56.8c1.3,1.4,3,2,4.9,2c0.9,0,1.9-0.2,2.7-0.5c0.9-0.3,1.6-0.7,2.3-1.3
	c0.6-0.5,1.3-1.4,2-2.6l2,1c-0.7,1.3-1.4,2.3-2.3,3.1c-0.9,0.8-1.8,1.4-2.9,1.8C35.6,60.8,34.4,61,33,61c-3,0-5.4-1-7-2.9
	c-1.7-1.9-2.5-4.1-2.5-6.6c0-2.3,0.7-4.4,2.2-6.2c1.8-2.3,4.3-3.4,7.3-3.4c3.1,0,5.6,1.2,7.5,3.5c1.3,1.7,2,3.7,2,6.2H25.9
	C25.9,53.7,26.6,55.4,27.9,56.8z M39.9,49.6c-0.3-1.2-0.8-2.2-1.4-3c-0.6-0.7-1.4-1.3-2.4-1.8c-1-0.5-2-0.7-3.1-0.7
	c-1.8,0-3.4,0.6-4.7,1.7c-0.9,0.8-1.7,2.1-2.2,3.8H39.9z M30.5,39l3.7-5.1h3.6l-5,5.1H30.5z M25.2,92.8c0.2,0.3,0.3,0.7,0.3,1.2
	c0,0.4-0.1,0.8-0.3,1.1c-0.2,0.3-0.5,0.6-0.9,0.8c0.5,0.2,0.8,0.3,1.1,0.6c0.3,0.2,0.5,0.5,0.6,0.8c0.1,0.3,0.2,0.6,0.2,1
	c0,0.7-0.3,1.3-0.8,1.8c-0.5,0.5-1.2,0.7-2.1,0.7h-2.5v-8.9h1.8c0.7,0,1.3,0.1,1.7,0.2C24.6,92.2,24.9,92.5,25.2,92.8z M21.7,99.8
	h1.1c0.7,0,1.1-0.1,1.5-0.2c0.3-0.1,0.6-0.3,0.7-0.6c0.2-0.3,0.3-0.6,0.3-0.9c0-0.4-0.1-0.7-0.4-1c-0.3-0.3-0.6-0.5-1.1-0.6
	c-0.3-0.1-0.8-0.1-1.6-0.1h-0.5V99.8z M22.7,92.7h-1v2.9h0.5c0.6,0,1.1-0.1,1.4-0.2c0.3-0.1,0.5-0.3,0.7-0.5
	c0.2-0.2,0.3-0.5,0.3-0.8c0-0.4-0.1-0.7-0.4-1C23.8,92.8,23.4,92.7,22.7,92.7z M14.9,60.5L6,49.1H4.6v11.4H2.1V35.9h5
	c2.8,0,4.6,0.1,5.6,0.3c1.5,0.3,2.7,1,3.6,2.1c0.9,1.1,1.4,2.5,1.4,4.1c0,1.3-0.3,2.5-1,3.5c-0.6,1-1.6,1.8-2.7,2.3
	c-1.2,0.5-2.8,0.8-4.9,0.8l9,11.4H14.9z M12.6,46.3c0.8-0.3,1.4-0.8,1.9-1.5c0.4-0.7,0.7-1.5,0.7-2.3c0-0.8-0.2-1.6-0.7-2.2
	c-0.5-0.7-1-1.2-1.8-1.4c-0.7-0.3-2-0.4-3.7-0.4H4.6v8.3l4.3,0C10.5,46.7,11.8,46.6,12.6,46.3z M31.1,93.9c1,0,1.9,0.4,2.6,1.1
	c0.6,0.7,0.9,1.5,0.9,2.4c0,0.9-0.3,1.7-1,2.4c-0.7,0.7-1.5,1-2.5,1c-1,0-1.9-0.3-2.5-1c-0.7-0.7-1-1.5-1-2.4c0-0.9,0.3-1.7,0.9-2.4
	C29.2,94.3,30,93.9,31.1,93.9z M28.8,98.8c0.2,0.4,0.6,0.7,1,1c0.4,0.2,0.8,0.3,1.3,0.3c0.5,0,0.9-0.1,1.3-0.3c0.4-0.2,0.7-0.5,1-1
	c0.2-0.4,0.4-0.9,0.4-1.3c0-0.7-0.3-1.4-0.8-1.9c-0.5-0.5-1.1-0.8-1.8-0.8c-0.7,0-1.3,0.3-1.8,0.8c-0.5,0.5-0.8,1.2-0.8,1.9
	C28.4,97.9,28.5,98.4,28.8,98.8z M36.9,97.2c0,0.8,0,1.3,0.1,1.6c0.1,0.4,0.4,0.7,0.7,1c0.4,0.2,0.8,0.4,1.2,0.4
	c0.5,0,0.9-0.1,1.2-0.3c0.3-0.2,0.6-0.5,0.7-0.9C41,98.6,41,98,41,97.2v-3.1h0.9v3.2c0,0.9-0.1,1.6-0.3,2.1c-0.2,0.5-0.5,0.8-1,1.1
	c-0.4,0.3-1,0.4-1.6,0.4s-1.2-0.1-1.6-0.4c-0.4-0.3-0.8-0.6-1-1.1c-0.2-0.5-0.3-1.2-0.3-2.1v-3.2h0.9V97.2z M44.6,100.7h-0.9v-9.2
	h0.9V100.7z M49.5,93.9c0.6,0,1,0.1,1.5,0.3c0.4,0.2,0.8,0.6,1.2,1v-1.2H53v6.6h-0.9v-1.1c-0.4,0.4-0.8,0.8-1.2,1
	c-0.5,0.2-0.9,0.3-1.5,0.3c-1,0-1.8-0.3-2.4-1c-0.7-0.7-1-1.5-1-2.5c0-1,0.3-1.8,1-2.4C47.7,94.3,48.6,93.9,49.5,93.9z M47.3,98.8
	c0.2,0.4,0.6,0.8,1,1c0.4,0.2,0.8,0.4,1.3,0.4c0.5,0,0.9-0.1,1.3-0.4c0.4-0.2,0.7-0.6,1-1c0.2-0.4,0.3-0.8,0.3-1.4
	c0-0.8-0.3-1.4-0.8-1.9c-0.5-0.5-1.1-0.8-1.9-0.8c-0.5,0-0.9,0.1-1.3,0.3c-0.4,0.2-0.7,0.6-1,1c-0.2,0.4-0.4,0.9-0.4,1.3
	C46.9,97.9,47,98.3,47.3,98.8z M55.8,95.3c0.3-0.5,0.7-0.8,1.1-1c0.4-0.2,0.9-0.3,1.4-0.3c0.5,0,0.9,0.1,1.3,0.4
	c0.4,0.3,0.7,0.6,0.9,1c0.2,0.4,0.3,1.1,0.3,2v3.4H60v-3.2c0-0.8,0-1.3-0.1-1.5c-0.1-0.4-0.3-0.8-0.6-1c-0.3-0.2-0.7-0.3-1.1-0.3
	c-0.5,0-1,0.2-1.4,0.5c-0.4,0.3-0.7,0.8-0.8,1.3c-0.1,0.3-0.1,0.9-0.1,1.8v2.4H55v-6.6h0.9V95.3z M67.3,100.4
	c-0.5,0.2-1,0.3-1.5,0.3c-0.6,0-1.2-0.2-1.7-0.5c-0.5-0.3-1-0.7-1.3-1.2c-0.3-0.5-0.4-1.1-0.4-1.7s0.2-1.2,0.5-1.7
	c0.3-0.5,0.7-0.9,1.3-1.3s1.1-0.5,1.7-0.5c0.5,0,1,0.1,1.4,0.3c0.4,0.2,0.9,0.5,1.3,1v-1.1h0.9v5.3c0,0.9-0.1,1.6-0.2,2
	c-0.2,0.6-0.6,1.1-1.2,1.4c-0.6,0.3-1.2,0.5-2,0.5c-0.6,0-1.1-0.1-1.6-0.2c-0.5-0.2-0.8-0.4-1.1-0.6c-0.3-0.3-0.6-0.7-0.8-1.2h0.9
	c0.3,0.4,0.6,0.8,1,1c0.4,0.2,0.9,0.3,1.5,0.3c0.6,0,1.1-0.1,1.5-0.3c0.4-0.2,0.7-0.5,0.9-0.8c0.2-0.3,0.3-0.9,0.3-1.6v-0.3
	C68.1,99.9,67.7,100.2,67.3,100.4z M68.5,97.4c0-0.5-0.1-0.9-0.3-1.3c-0.2-0.4-0.5-0.7-0.9-0.9c-0.4-0.2-0.8-0.3-1.3-0.3
	c-0.5,0-0.9,0.1-1.4,0.3c-0.4,0.2-0.7,0.6-1,1c-0.2,0.4-0.4,0.9-0.4,1.3c0,0.7,0.2,1.3,0.7,1.8c0.5,0.5,1.1,0.7,1.9,0.7
	c0.8,0,1.4-0.2,1.9-0.7C68.3,98.7,68.5,98.1,68.5,97.4z M74.3,93.9c1.1,0,2.1,0.4,2.7,1.3c0.5,0.6,0.7,1.4,0.7,2.3h-6
	c0,0.8,0.3,1.4,0.7,1.9c0.5,0.5,1.1,0.7,1.8,0.7c0.3,0,0.7-0.1,1-0.2c0.3-0.1,0.6-0.3,0.8-0.5c0.2-0.2,0.5-0.5,0.7-0.9l0.7,0.4
	c-0.2,0.5-0.5,0.8-0.8,1.1c-0.3,0.3-0.7,0.5-1.1,0.6c-0.4,0.1-0.8,0.2-1.3,0.2c-1.1,0-1.9-0.4-2.6-1.1c-0.6-0.7-0.9-1.5-0.9-2.4
	c0-0.8,0.3-1.6,0.8-2.2C72.3,94.4,73.2,93.9,74.3,93.9z M76.8,96.7c-0.1-0.5-0.3-0.8-0.5-1.1c-0.2-0.3-0.5-0.5-0.9-0.7
	c-0.4-0.2-0.7-0.3-1.1-0.3c-0.7,0-1.2,0.2-1.7,0.6c-0.3,0.3-0.6,0.8-0.8,1.4H76.8z M79.9,95.1c0.3-0.4,0.5-0.7,0.8-0.9
	c0.3-0.2,0.6-0.3,0.9-0.3c0.2,0,0.5,0.1,0.8,0.2L82,94.9c-0.2-0.1-0.3-0.1-0.5-0.1c-0.3,0-0.6,0.1-0.8,0.4c-0.3,0.2-0.5,0.6-0.6,1.1
	c-0.1,0.4-0.2,1.1-0.2,2.3v2.2H79v-6.6h0.9V95.1z M83.5,91.4c0.2,0,0.4,0.1,0.5,0.2c0.1,0.1,0.2,0.3,0.2,0.5c0,0.2-0.1,0.4-0.2,0.5
	c-0.1,0.1-0.3,0.2-0.5,0.2c-0.2,0-0.4-0.1-0.5-0.2c-0.1-0.1-0.2-0.3-0.2-0.5c0-0.2,0.1-0.4,0.2-0.5C83.1,91.5,83.3,91.4,83.5,91.4z
	 M83.9,100.7H83v-6.6h0.9V100.7z M88.8,93.9c1.1,0,2.1,0.4,2.7,1.3c0.5,0.6,0.7,1.4,0.7,2.3h-6c0,0.8,0.3,1.4,0.7,1.9
	c0.5,0.5,1.1,0.7,1.8,0.7c0.3,0,0.7-0.1,1-0.2c0.3-0.1,0.6-0.3,0.8-0.5c0.2-0.2,0.5-0.5,0.7-0.9l0.7,0.4c-0.2,0.5-0.5,0.8-0.8,1.1
	c-0.3,0.3-0.7,0.5-1.1,0.6c-0.4,0.1-0.8,0.2-1.3,0.2c-1.1,0-2-0.4-2.6-1.1c-0.6-0.7-0.9-1.5-0.9-2.4c0-0.8,0.3-1.6,0.8-2.2
	C86.8,94.4,87.7,93.9,88.8,93.9z M91.3,96.7c-0.1-0.5-0.3-0.8-0.5-1.1c-0.2-0.3-0.5-0.5-0.9-0.7c-0.4-0.2-0.7-0.3-1.1-0.3
	c-0.7,0-1.2,0.2-1.7,0.6c-0.3,0.3-0.6,0.8-0.8,1.4H91.3z M100.2,97.7h-3.4V97h3.4V97.7z M109.1,91.9c0.5,0.1,0.9,0.4,1.3,0.8
	c0.3,0.4,0.5,0.9,0.5,1.5c0,0.6-0.2,1.1-0.5,1.5c-0.3,0.4-0.8,0.6-1.3,0.8c-0.4,0.1-1.2,0.1-2.3,0.1h-0.6v4.2h-0.9v-8.9h1.8
	C108.1,91.8,108.8,91.8,109.1,91.9z M106.1,95.7l1.5,0c0.6,0,1.1-0.1,1.4-0.2c0.3-0.1,0.5-0.3,0.7-0.5c0.2-0.3,0.2-0.5,0.2-0.8
	c0-0.3-0.1-0.6-0.2-0.8c-0.2-0.3-0.4-0.4-0.7-0.5c-0.3-0.1-0.7-0.2-1.3-0.2h-1.6V95.7z M115.7,93.9c0.6,0,1,0.1,1.5,0.3
	c0.4,0.2,0.8,0.6,1.2,1v-1.2h0.8v6.6h-0.8v-1.1c-0.4,0.4-0.8,0.8-1.2,1c-0.4,0.2-0.9,0.3-1.5,0.3c-0.9,0-1.8-0.3-2.4-1
	c-0.7-0.7-1-1.5-1-2.5c0-1,0.3-1.8,1-2.4C113.9,94.3,114.8,93.9,115.7,93.9z M113.5,98.8c0.2,0.4,0.6,0.8,1,1
	c0.4,0.2,0.8,0.4,1.3,0.4c0.5,0,0.9-0.1,1.3-0.4c0.4-0.2,0.7-0.6,1-1c0.2-0.4,0.3-0.8,0.3-1.4c0-0.8-0.3-1.4-0.8-1.9
	s-1.1-0.8-1.9-0.8c-0.5,0-0.9,0.1-1.3,0.3c-0.4,0.2-0.7,0.6-1,1c-0.2,0.4-0.4,0.9-0.4,1.3C113.1,97.9,113.2,98.3,113.5,98.8z
	 M121.9,91.7h0.9v2.5h1.4v0.7h-1.4v5.9h-0.9v-5.9h-1.2v-0.7h1.2V91.7z M125.8,91.4c0.2,0,0.4,0.1,0.5,0.2c0.1,0.1,0.2,0.3,0.2,0.5
	c0,0.2-0.1,0.4-0.2,0.5c-0.1,0.1-0.3,0.2-0.5,0.2c-0.2,0-0.4-0.1-0.5-0.2c-0.1-0.1-0.2-0.3-0.2-0.5c0-0.2,0.1-0.4,0.2-0.5
	C125.4,91.5,125.6,91.4,125.8,91.4z M126.2,100.7h-0.9v-6.6h0.9V100.7z M129.3,100.1c0.3,0,0.6-0.1,0.9-0.3c0.2-0.2,0.4-0.5,0.4-0.8
	c0-0.2-0.1-0.5-0.2-0.7c-0.2-0.2-0.5-0.4-1.1-0.7c-0.6-0.3-1-0.6-1.2-0.9c-0.2-0.3-0.3-0.6-0.3-1c0-0.5,0.2-0.9,0.5-1.3
	c0.3-0.3,0.8-0.5,1.3-0.5c0.6,0,1.2,0.3,1.9,0.9l-0.6,0.6c-0.5-0.4-0.9-0.7-1.4-0.7c-0.3,0-0.5,0.1-0.7,0.3
	c-0.2,0.2-0.3,0.4-0.3,0.6c0,0.2,0.1,0.4,0.2,0.6c0.2,0.2,0.5,0.4,1,0.7c0.6,0.3,1.1,0.6,1.3,0.9c0.2,0.3,0.3,0.7,0.3,1
	c0,0.5-0.2,1-0.6,1.4c-0.4,0.4-0.9,0.6-1.5,0.6c-0.4,0-0.8-0.1-1.1-0.2c-0.3-0.2-0.6-0.4-0.9-0.7l0.5-0.6
	C128.3,99.8,128.8,100.1,129.3,100.1z M134.2,100.1c0.3,0,0.6-0.1,0.9-0.3c0.2-0.2,0.4-0.5,0.4-0.8c0-0.2-0.1-0.5-0.2-0.7
	c-0.2-0.2-0.5-0.4-1.1-0.7c-0.6-0.3-1-0.6-1.2-0.9c-0.2-0.3-0.3-0.6-0.3-1c0-0.5,0.2-0.9,0.5-1.3c0.4-0.3,0.8-0.5,1.3-0.5
	c0.6,0,1.2,0.3,1.9,0.9l-0.6,0.6c-0.5-0.4-0.9-0.7-1.4-0.7c-0.3,0-0.5,0.1-0.7,0.3c-0.2,0.2-0.3,0.4-0.3,0.6c0,0.2,0.1,0.4,0.2,0.6
	c0.2,0.2,0.5,0.4,1,0.7c0.6,0.3,1.1,0.6,1.3,0.9c0.2,0.3,0.3,0.7,0.3,1c0,0.5-0.2,1-0.6,1.4c-0.4,0.4-0.9,0.6-1.5,0.6
	c-0.4,0-0.8-0.1-1.1-0.2c-0.4-0.2-0.6-0.4-0.9-0.7l0.5-0.6C133.2,99.8,133.7,100.1,134.2,100.1z M118.1,92.9H117l-1.1-0.9l-1.1,0.9
	h-1.2l1.8-1.6h0.9L118.1,92.9z M31.7,78l110.7,0.7L31.7,79.4V78z M84,13.3l-0.7-0.5c-0.5-0.5-0.8-1-0.8-1.6c0-0.4,0.2-0.8,0.6-1.2
	l0.9-0.7c0.4-0.3,1-0.3,1.4,0l1.6,1.4c0.4,0.3,0.4,0.9,0,1.2l-1.6,1.4C85,13.5,84.3,13.6,84,13.3z M92,24.4l-1.6,1.4
	c-0.4,0.3-1,0.3-1.4,0l-5.6-4.7c-0.5-0.5-0.8-1-0.8-1.6c0-0.4,0.2-0.9,0.6-1.2l0.9-0.7c0.4-0.3,1-0.3,1.4,0l6.6,5.6
	C92.4,23.5,92.4,24.1,92,24.4z M140.9,93.9c1.1,0,2.1,0.4,2.7,1.3c0.5,0.6,0.7,1.4,0.7,2.3h-6c0,0.8,0.3,1.4,0.7,1.9
	c0.5,0.5,1.1,0.7,1.8,0.7c0.3,0,0.7-0.1,1-0.2c0.3-0.1,0.6-0.3,0.8-0.5c0.2-0.2,0.5-0.5,0.7-0.9l0.7,0.4c-0.2,0.5-0.5,0.8-0.8,1.1
	c-0.3,0.3-0.7,0.5-1.1,0.6c-0.4,0.1-0.8,0.2-1.3,0.2c-1.1,0-1.9-0.4-2.6-1.1c-0.6-0.7-0.9-1.5-0.9-2.4c0-0.8,0.3-1.6,0.8-2.2
	C138.9,94.4,139.8,93.9,140.9,93.9z M143.4,96.7c-0.1-0.5-0.3-0.8-0.5-1.1c-0.2-0.3-0.5-0.5-0.9-0.7c-0.4-0.2-0.7-0.3-1.1-0.3
	c-0.7,0-1.2,0.2-1.7,0.6c-0.3,0.3-0.6,0.8-0.8,1.4H143.4z M146.5,95.1c0.3-0.4,0.5-0.7,0.8-0.9c0.3-0.2,0.6-0.3,0.9-0.3
	c0.2,0,0.5,0.1,0.8,0.2l-0.4,0.7c-0.2-0.1-0.3-0.1-0.5-0.1c-0.3,0-0.6,0.1-0.8,0.4c-0.3,0.2-0.5,0.6-0.6,1.1
	c-0.1,0.4-0.2,1.1-0.2,2.3v2.2h-0.9v-6.6h0.9V95.1z M150.1,91.4c0.2,0,0.4,0.1,0.5,0.2c0.1,0.1,0.2,0.3,0.2,0.5
	c0,0.2-0.1,0.4-0.2,0.5c-0.1,0.1-0.3,0.2-0.5,0.2c-0.2,0-0.4-0.1-0.5-0.2c-0.1-0.1-0.2-0.3-0.2-0.5c0-0.2,0.1-0.4,0.2-0.5
	C149.7,91.5,149.9,91.4,150.1,91.4z M150.5,100.7h-0.9v-6.6h0.9V100.7z"/>
</svg>
